<svg xmlns="http://www.w3.org/2000/svg" viewBox="0 0 32 32" width="32" height="32">
  <!-- Near-black surgical field -->
  <rect width="32" height="32" rx="4" fill="#050508"/>
  <!-- Chrome cross with circuit traces -->
  <path d="M15 4 L17 4 L17 15 L28 15 L28 17 L17 17 L17 28 L15 28 L15 17 L4 17 L4 15 L15 15 Z" fill="#a8b5c4"/>
  <!-- Arterial blood drip from center -->
  <circle cx="16" cy="16" r="2.8" fill="#ff1a3c"/>
  <path d="M16 19 Q14 23 16 27 Q18 23 16 19" fill="none" stroke="#c8102e" stroke-width="1.6" stroke-linecap="round"/>
  <!-- Electric cyan circuit lines -->
  <path d="M8 8 L10 10" stroke="#00f0ff" stroke-width="0.9" stroke-linecap="round"/>
  <path d="M24 8 L22 10" stroke="#00f0ff" stroke-width="0.9" stroke-linecap="round"/>
  <path d="M8 24 L10 22" stroke="#00f0ff" stroke-width="0.9" stroke-linecap="round"/>
  <path d="M24 24 L22 22" stroke="#00f0ff" stroke-width="0.9" stroke-linecap="round"/>
  <!-- Subtle chrome bevel highlight -->
  <path d="M15 4 L17 4 L17 15 L15 15 Z" fill="#e2e8f0" opacity="0.35"/>
</svg>