<svg xmlns="http://www.w3.org/2000/svg" viewBox="0 0 32 32" width="32" height="32">
  <rect width="32" height="32" rx="7" fill="#f0ead9"/>
  <path d="M16 27V8" fill="none" stroke="#5e7d00" stroke-width="1.8" stroke-linecap="round"/>
  <g fill="#5e7d00">
    <path d="M16 13c-3-.5-4.9-2.4-5.2-4.8C13.9 8.5 15.4 10.4 16 13Zm0 0c3-.5 4.9-2.4 5.2-4.8C18.1 8.5 16.6 10.4 16 13Z"/>
    <path d="M16 18c-3-.5-4.9-2.4-5.2-4.8C13.9 13.5 15.4 15.4 16 18Zm0 0c3-.5 4.9-2.4 5.2-4.8C18.1 13.5 16.6 15.4 16 18Z"/>
    <path d="M16 23c-3-.5-4.9-2.4-5.2-4.8C13.9 18.5 15.4 20.4 16 23Zm0 0c3-.5 4.9-2.4 5.2-4.8C18.1 18.5 16.6 20.4 16 23Z"/>
  </g>
</svg>
