<svg xmlns="http://www.w3.org/2000/svg" viewBox="0 0 900 1200" role="img" aria-labelledby="cs-title">
  <title id="cs-title">Duotone poster of a proof contact sheet: a grid of film frames bordered by sprocket holes</title>
  <rect width="900" height="1200" fill="#1c181a"/>
  <rect x="60" y="60" width="780" height="1080" fill="none" stroke="#ece6e6" stroke-width="4" opacity="0.35"/>
  <g fill="#ece6e6">
    <circle cx="140" cy="130" r="14"/><circle cx="230" cy="130" r="14"/><circle cx="320" cy="130" r="14"/>
    <circle cx="410" cy="130" r="14"/><circle cx="500" cy="130" r="14"/><circle cx="590" cy="130" r="14"/>
    <circle cx="680" cy="130" r="14"/><circle cx="760" cy="130" r="14"/>
    <circle cx="140" cy="1070" r="14"/><circle cx="230" cy="1070" r="14"/><circle cx="320" cy="1070" r="14"/>
    <circle cx="410" cy="1070" r="14"/><circle cx="500" cy="1070" r="14"/><circle cx="590" cy="1070" r="14"/>
    <circle cx="680" cy="1070" r="14"/><circle cx="760" cy="1070" r="14"/>
  </g>
  <g stroke="#ece6e6" stroke-width="6" fill="none">
    <rect x="140" y="220" width="230" height="180"/>
    <rect x="410" y="220" width="230" height="180"/>
    <rect x="140" y="440" width="230" height="180"/>
    <rect x="410" y="440" width="230" height="180"/>
    <rect x="140" y="660" width="230" height="180"/>
    <rect x="410" y="660" width="230" height="180"/>
  </g>
  <g fill="#ff4d43">
    <circle cx="255" cy="310" r="46"/>
    <path d="M410 400 L560 220 L640 400 Z"/>
    <rect x="200" y="500" width="110" height="60"/>
    <path d="M440 620 L640 440 L640 620 Z" opacity="0.6"/>
    <ellipse cx="255" cy="750" rx="70" ry="46"/>
    <path d="M410 840 L525 660 L640 840 Z" opacity="0.75"/>
  </g>
  <rect x="140" y="440" width="230" height="180" fill="none" stroke="#ff4d43" stroke-width="8"/>
  <line x1="700" y1="220" x2="700" y2="840" stroke="#ece6e6" stroke-width="4" opacity="0.4"/>
</svg>
