<svg xmlns="http://www.w3.org/2000/svg" viewBox="0 0 900 1200" role="img" aria-labelledby="dt-title">
  <title id="dt-title">Duotone poster of a print developer tray with tongs resting across ripples of liquid</title>
  <rect width="900" height="1200" fill="#1c181a"/>
  <rect x="60" y="60" width="780" height="1080" fill="none" stroke="#ece6e6" stroke-width="4" opacity="0.35"/>
  <ellipse cx="450" cy="560" rx="330" ry="110" fill="none" stroke="#ff4d43" stroke-width="4" opacity="0.35"/>
  <ellipse cx="450" cy="560" rx="270" ry="88" fill="none" stroke="#ff4d43" stroke-width="4" opacity="0.5"/>
  <rect x="150" y="380" width="600" height="430" rx="26" fill="none" stroke="#ece6e6" stroke-width="16"/>
  <rect x="192" y="420" width="516" height="352" rx="10" fill="#ff4d43" opacity="0.16"/>
  <rect x="192" y="420" width="516" height="352" rx="10" fill="none" stroke="#ff4d43" stroke-width="6"/>
  <rect x="360" y="470" width="180" height="240" fill="#121012" stroke="#ece6e6" stroke-width="6" transform="rotate(-4 450 590)"/>
  <path d="M240 380 L200 300 L236 288 L264 356 Z" fill="#ece6e6"/>
  <path d="M300 380 L340 292 L306 276 L266 356 Z" fill="#ece6e6"/>
  <rect x="255" y="270" width="30" height="26" rx="4" fill="#ece6e6" transform="rotate(18 270 283)"/>
  <g stroke="#ff4d43" stroke-width="5" opacity="0.7">
    <line x1="150" y1="850" x2="750" y2="850"/>
    <line x1="150" y1="880" x2="700" y2="880"/>
  </g>
</svg>
