<svg xmlns="http://www.w3.org/2000/svg" viewBox="0 0 900 1200" role="img" aria-labelledby="en-title">
  <title id="en-title">Duotone poster of a photographic enlarger silhouette casting a cone of light onto a baseboard</title>
  <rect width="900" height="1200" fill="#1c181a"/>
  <rect x="60" y="60" width="780" height="1080" fill="none" stroke="#ece6e6" stroke-width="4" opacity="0.35"/>
  <g stroke="#ff4d43" stroke-width="4" opacity="0.5">
    <line x1="450" y1="150" x2="450" y2="1050"/>
  </g>
  <rect x="220" y="960" width="460" height="46" rx="6" fill="#ece6e6"/>
  <rect x="410" y="330" width="80" height="630" fill="#ece6e6"/>
  <rect x="360" y="300" width="180" height="70" rx="10" fill="#ece6e6"/>
  <path d="M330 370 L570 370 L520 470 L380 470 Z" fill="#ece6e6"/>
  <circle cx="450" cy="500" r="46" fill="#121012" stroke="#ece6e6" stroke-width="10"/>
  <circle cx="450" cy="500" r="18" fill="#ff4d43"/>
  <path d="M420 546 L480 546 L640 940 L260 940 Z" fill="#ff4d43" opacity="0.18"/>
  <path d="M420 546 L480 546 L640 940 L260 940 Z" fill="none" stroke="#ff4d43" stroke-width="4"/>
  <rect x="200" y="900" width="500" height="34" rx="6" fill="#ff4d43"/>
  <g fill="#ece6e6">
    <rect x="330" y="230" width="18" height="60" rx="4"/>
    <rect x="552" y="230" width="18" height="60" rx="4"/>
  </g>
</svg>
