<svg xmlns="http://www.w3.org/2000/svg" viewBox="0 0 900 1200" role="img" aria-labelledby="rl-title">
  <title id="rl-title">Duotone poster of a film reel with spoked holes trailing a perforated strip of film</title>
  <rect width="900" height="1200" fill="#1c181a"/>
  <rect x="60" y="60" width="780" height="1080" fill="none" stroke="#ece6e6" stroke-width="4" opacity="0.35"/>
  <circle cx="450" cy="480" r="260" fill="none" stroke="#ece6e6" stroke-width="16"/>
  <circle cx="450" cy="480" r="70" fill="#121012" stroke="#ece6e6" stroke-width="12"/>
  <circle cx="450" cy="480" r="18" fill="#ff4d43"/>
  <g fill="#121012" stroke="#ece6e6" stroke-width="8">
    <circle cx="450" cy="290" r="46"/>
    <circle cx="616" cy="385" r="46"/>
    <circle cx="616" cy="575" r="46"/>
    <circle cx="450" cy="670" r="46"/>
    <circle cx="284" cy="575" r="46"/>
    <circle cx="284" cy="385" r="46"/>
  </g>
  <path d="M240 700 Q120 860 260 980 Q400 1090 250 1150" fill="none" stroke="#ff4d43" stroke-width="70" stroke-linecap="round" opacity="0.85"/>
  <path d="M240 700 Q120 860 260 980 Q400 1090 250 1150" fill="none" stroke="#121012" stroke-width="70" stroke-linecap="round" stroke-dasharray="1 27.5" opacity="0.9"/>
  <g fill="#ece6e6">
    <circle cx="232" cy="722" r="9"/><circle cx="180" cy="790" r="9"/><circle cx="150" cy="862" r="9"/>
    <circle cx="165" cy="936" r="9"/><circle cx="228" cy="988" r="9"/><circle cx="308" cy="1010" r="9"/>
    <circle cx="360" cy="1060" r="9"/><circle cx="330" cy="1130" r="9"/>
  </g>
</svg>
