<svg xmlns="http://www.w3.org/2000/svg" viewBox="0 0 900 1200" role="img" aria-labelledby="sl-title">
  <title id="sl-title">Duotone poster of a hanging safelight bulb radiating light over a darkroom</title>
  <rect width="900" height="1200" fill="#1c181a"/>
  <rect x="60" y="60" width="780" height="1080" fill="none" stroke="#ece6e6" stroke-width="4" opacity="0.35"/>
  <line x1="450" y1="110" x2="450" y2="380" stroke="#ece6e6" stroke-width="8"/>
  <g stroke="#ff4d43" stroke-width="6" opacity="0.55">
    <line x1="450" y1="620" x2="220" y2="440"/>
    <line x1="450" y1="620" x2="300" y2="360"/>
    <line x1="450" y1="620" x2="450" y2="330"/>
    <line x1="450" y1="620" x2="600" y2="360"/>
    <line x1="450" y1="620" x2="680" y2="440"/>
    <line x1="450" y1="620" x2="180" y2="600"/>
    <line x1="450" y1="620" x2="720" y2="600"/>
    <line x1="450" y1="620" x2="250" y2="760"/>
    <line x1="450" y1="620" x2="650" y2="760"/>
  </g>
  <path d="M370 380 h160 a80 80 0 0 1 -160 0 Z" fill="#ece6e6"/>
  <ellipse cx="450" cy="380" rx="80" ry="34" fill="#ece6e6"/>
  <path d="M390 470 q60 90 120 0" fill="none" stroke="#121012" stroke-width="10"/>
  <circle cx="450" cy="620" r="150" fill="#ff4d43" opacity="0.14"/>
  <circle cx="450" cy="620" r="150" fill="none" stroke="#ff4d43" stroke-width="5"/>
  <path d="M420 560 L460 610 L432 610 L472 680 L410 615 L438 615 Z" fill="#ff4d43"/>
  <rect x="440" y="960" width="20" height="140" fill="#ece6e6"/>
  <circle cx="450" cy="1112" r="18" fill="#ece6e6"/>
</svg>
