<svg xmlns="http://www.w3.org/2000/svg" viewBox="0 0 32 32" role="img" aria-label="Buckram">
  <rect width="32" height="32" rx="7" fill="#14120f"/>
  <rect x="3.5" y="3.5" width="25" height="25" rx="5" fill="none" stroke="#3a352c" stroke-width="1.3"/>
  <path d="M16 6c2.2 3.1 1.1 5.1-.2 6.9-1.6 2.2-2.9 4.2-2.9 7.2A5.1 5.1 0 0 0 21 20c0-2.2-.9-3.8-1.6-5 1.7 1 2.9 2.9 2.9 5.4A6.3 6.3 0 1 1 9.6 20c0-4.7 3.1-7.2 4.9-9.9C15.6 8.2 16.2 7 16 6z" fill="#e05a3a"/>
  <circle cx="16" cy="20.6" r="2.4" fill="#f3b199"/>
</svg>
