<svg xmlns="http://www.w3.org/2000/svg" viewBox="0 0 32 32">
  <rect width="32" height="32" fill="#f6f1e7"/>
  <rect x="2" y="2" width="28" height="28" fill="none" stroke="#1a1613" stroke-width="2"/>
  <rect x="6" y="6" width="20" height="2" fill="#1a1613"/>
  <rect x="6" y="24" width="20" height="2" fill="#1a1613"/>
  <path d="M22 13.5c-0.7-2.1-2.6-3.5-5-3.5-3 0-5.3 2.2-5.3 6s2.3 6 5.3 6c2.6 0 4.5-1.6 4.7-4.2h-4.4v-2.3H24v8h-2v-1.6c-1 1.2-2.6 2-4.6 2-4.4 0-7.6-3.3-7.6-7.9S13 7.5 17.3 7.5c3.3 0 6.1 1.9 6.9 5z" fill="#1a1613"/>
  <rect x="13" y="20.5" width="6" height="2" fill="#b0231c"/>
</svg>
