<svg xmlns="http://www.w3.org/2000/svg" viewBox="0 0 240 24" fill="none" stroke="#2e6b34" stroke-linecap="round" aria-hidden="true">
  <path d="M3 9 C 26 3 44 15 66 9 S 110 4 132 10 S 176 16 198 8 237 11" stroke-width="1.9"/>
  <path d="M50 12 C 49 15 52 18 51 21" stroke-width="1.2" opacity="0.55"/>
  <path d="M120 12 C 119 16 122 18 121 21" stroke-width="1.2" opacity="0.55"/>
  <path d="M190 12 C 189 15 192 18 191 21" stroke-width="1.2" opacity="0.55"/>
  <path d="M26 10 C 25 12 28 15 27 17" stroke-width="1" opacity="0.4"/>
  <path d="M154 11 C 153 13 156 16 155 18" stroke-width="1" opacity="0.4"/>
  <path d="M86 10 C 85 12 88 15 87 17" stroke-width="1" opacity="0.4"/>
</svg>
