<svg xmlns="http://www.w3.org/2000/svg" viewBox="0 0 600 800" role="img" aria-labelledby="p5title p5desc">
  <title id="p5title">Plate V: Ardea Coronata, the Crowned Heron-King</title>
  <desc id="p5desc">A full-bodied heron stands with wings spread wide, wearing a five-pointed crown, over rippled marsh water.</desc>
  <defs>
    <g id="fleuron5">
      <circle r="10" fill="none" stroke="#d9a441" stroke-width="1" opacity="0.65"/>
      <path d="M0,-10 L0,-4 M0,10 L0,4 M-10,0 L-4,0 M10,0 L4,0" stroke="#d9a441" stroke-width="1" opacity="0.65"/>
      <circle r="2.6" fill="#d9a441" opacity="0.85"/>
    </g>
  </defs>

  <rect width="600" height="800" fill="#1e1729"/>
  <rect x="24" y="24" width="552" height="752" fill="none" stroke="#d9a441" stroke-width="1.5" opacity="0.55"/>
  <use href="#fleuron5" x="40" y="40"/>
  <use href="#fleuron5" x="560" y="40"/>
  <use href="#fleuron5" x="40" y="760"/>
  <use href="#fleuron5" x="560" y="760"/>

  <g stroke="#a99e86" stroke-width="1.5" fill="none" opacity="0.42">
    <path d="M56,684 Q86,676 116,684 T176,684 T236,684 T296,684 T356,684 T416,684 T476,684 T536,684"/>
    <path d="M56,710 Q86,702 116,710 T176,710 T236,710 T296,710 T356,710 T416,710 T476,710 T536,710"/>
  </g>
  <g stroke="#d9a441" stroke-width="2" fill="none" opacity="0.25">
    <path d="M120,696 Q112,590 126,478"/>
    <path d="M484,696 Q492,590 478,478"/>
  </g>

  <!-- legs: tapered filled forms -->
  <g fill="#d9a441">
    <path d="M270,506 C264,506 260,510 261,516 L254,610 C254,618 258,622 264,622 L270,622 C276,622 280,618 279,610 L276,516 C276,510 276,506 270,506 Z"/>
    <path d="M330,506 C324,506 322,510 323,516 L326,610 C325,618 330,622 336,622 L342,622 C348,622 352,618 351,610 L344,516 C344,510 336,506 330,506 Z"/>
  </g>
  <g stroke="#1e1729" stroke-width="2.25" stroke-linecap="round" opacity="0.85">
    <path d="M267,622 l-15,11 M267,622 l6,14 M267,622 l17,4"/>
    <path d="M333,622 l15,11 M333,622 l-6,14 M333,622 l-17,4"/>
  </g>

  <!-- spread wings, filled -->
  <g fill="#2c2438" stroke="#d9a441" stroke-width="2.5" stroke-linejoin="round">
    <path d="M244,442 C176,414 118,432 66,398 C110,436 118,458 78,472 C128,486 168,470 210,468 C232,466 244,458 244,442 Z"/>
    <path d="M356,442 C424,414 482,432 534,398 C490,436 482,458 522,472 C472,486 432,470 390,468 C368,466 356,458 356,442 Z"/>
  </g>
  <g stroke="#d9a441" stroke-width="1.25" fill="none" opacity="0.55">
    <path d="M150,432 Q140,452 112,462"/>
    <path d="M190,444 Q182,460 158,470"/>
    <path d="M450,432 Q460,452 488,462"/>
    <path d="M410,444 Q418,460 442,470"/>
  </g>

  <!-- body: full torso -->
  <path d="M300,404 C350,404 386,430 386,464 C386,502 350,528 300,528 C250,528 214,502 214,464 C214,430 250,404 300,404 Z"
        fill="#2c2438" stroke="#d9a441" stroke-width="3.5"/>
  <g stroke="#d9a441" stroke-width="1.5" fill="none" opacity="0.5">
    <path d="M240,450 Q300,470 360,450"/>
    <path d="M236,470 Q300,494 364,470"/>
    <path d="M246,492 Q300,510 354,492"/>
  </g>

  <!-- neck and head -->
  <path d="M284,416 C270,378 274,332 288,300 L312,300 C320,334 318,382 316,418 C308,424 292,424 284,416 Z"
        fill="#2c2438" stroke="#d9a441" stroke-width="3.5" stroke-linejoin="round"/>
  <circle cx="300" cy="286" r="28" fill="#1e1729" stroke="#d9a441" stroke-width="3.5"/>
  <path d="M300,284 L342,292 L302,304 Z" fill="#d9a441"/>
  <circle cx="309" cy="278" r="3.4" fill="#e8e2d4"/>

  <!-- crown -->
  <path d="M270,258 L276,224 L286,244 L300,214 L314,244 L324,224 L330,258 Z"
        fill="#1e1729" stroke="#d9a441" stroke-width="3" stroke-linejoin="round"/>
  <circle cx="276" cy="224" r="3" fill="#d9a441"/>
  <circle cx="300" cy="214" r="3.6" fill="#d9a441"/>
  <circle cx="324" cy="224" r="3" fill="#d9a441"/>
</svg>
